<svg id="Capa_1" enable-background="new 0 0 512.064 512.064" height="512" viewBox="0 0 512.064 512.064" width="512" xmlns="http://www.w3.org/2000/svg"><g><circle cx="256.032" cy="256.032" fill="#d0e2e7" r="248.5"/><path d="m346.576 24.543c70.792 43.79 117.956 122.131 117.956 211.489 0 137.243-111.257 248.5-248.5 248.5-31.948 0-62.488-6.029-90.544-17.011 37.937 23.467 82.658 37.011 130.544 37.011 137.243 0 248.5-111.257 248.5-248.5 0-105.294-65.488-195.294-157.956-231.489z" fill="#b4d0d5"/><path d="m452.508 256.032c0 108.511-87.965 196.476-196.476 196.476s-196.476-87.965-196.476-196.476z" fill="#f1f4f6"/><path d="m411.502 256.032c-10.021 99.116-93.711 176.476-195.47 176.476-23.601 0-46.229-4.162-67.192-11.791 30.826 20.105 67.644 31.791 107.192 31.791 108.511 0 196.476-87.965 196.476-196.476z" fill="#dfeaef"/><path d="m256.032 220.973c-19.363 0-35.059 15.697-35.059 35.059h70.119c0-19.363-15.697-35.059-35.06-35.059z" fill="#f4dd45"/><path d="m426.213 157.778-139.814 80.722c2.984 5.157 4.692 11.145 4.692 17.532h161.416c.001-35.793-9.571-69.351-26.294-98.254z" fill="#e4936b"/><path d="m279.12 229.647 20.697-87.606c1.591-6.733-2.458-13.511-9.141-15.302-6.683-1.791-13.578 2.055-15.567 8.681l-25.878 86.215c10.364-2.039 21.471.631 29.889 8.012z" fill="#eab14d"/><path d="m253.004 368.556-17.893 50.102c-.83 2.325.893 4.771 3.362 4.771h11.405c1.22 0 2.356-.623 3.011-1.653l48.445-76.095c2.209-3.47-.283-8.013-4.398-8.013h-18.305c-3.605 0-6.122-3.571-4.909-6.966l15.25-42.703c1.212-3.395-1.304-6.966-4.909-6.966h-31.329c-2.203 0-4.168 1.385-4.909 3.46l-26.904 75.334c-1.212 3.395 1.304 6.966 4.909 6.966h25.932c.912 0 1.549.903 1.242 1.763z" fill="#f4dd45"/><circle cx="358.657" cy="342.23" fill="#617881" r="18.015"/><circle cx="153.407" cy="342.23" fill="#617881" r="18.015"/><path d="m306.896 66.205-16.22 60.535c6.683 1.791 10.732 8.569 9.141 15.302l-20.698 87.607c2.883 2.524 5.349 5.514 7.28 8.851l139.814-80.721c-25.756-44.514-68.474-77.985-119.317-91.574z" fill="#80cb8e"/><path d="m275.109 135.421c1.989-6.626 8.885-10.472 15.567-8.681l16.22-60.535c-16.223-4.336-33.274-6.649-50.864-6.649-108.511 0-196.476 87.965-196.476 196.476h161.416c0-17.036 12.151-31.233 28.259-34.4z" fill="#698ed5"/><path d="m284.83 236.032c.556.799 1.08 1.622 1.569 2.468l4.274-2.468z" fill="#66b49d"/><path d="m386.213 137.778c6.227 10.762 11.462 22.17 15.581 34.098l24.419-14.098c-22.948-39.66-59.361-70.555-102.988-86.431 25.853 16.863 47.491 39.648 62.988 66.431z" fill="#66b49d"/><path d="m60.562 236.032c-.665 6.576-1.006 13.248-1.006 20h161.416c0-7.434 2.314-14.328 6.261-20z" fill="#4073c8"/><path d="m426.213 157.778-24.419 14.098c4.333 12.548 7.431 25.673 9.147 39.228 1.677 13.242-8.736 24.928-22.084 24.928h-98.184l-4.274 2.468c2.984 5.157 4.692 11.145 4.692 17.532h161.416c.001-35.793-9.571-69.351-26.294-98.254z" fill="#e27d47"/><path d="m256 .032c-141.484 0-256 114.497-256 256 0 141.484 114.497 256 256 256 66.275 0 129.133-25.23 176.995-71.043 2.992-2.864 3.096-7.612.232-10.604-2.864-2.993-7.612-3.096-10.604-.232-45.056 43.127-104.23 66.879-166.623 66.879-132.888 0-241-108.112-241-241s108.112-241 241-241 241 108.112 241 241c0 53.989-17.445 105.018-50.449 147.57-2.539 3.273-1.943 7.984 1.33 10.523 3.272 2.539 7.985 1.943 10.523-1.33 35.862-46.238 53.661-101.557 53.661-156.766-.001-139.118-112.494-255.997-256.065-255.997z"/><path d="m252.701 273.532c-5.359 0-10.17 3.391-11.972 8.438l-26.904 75.334c-2.954 8.271 3.19 16.989 11.973 16.989h17.161l-14.943 41.842c-2.572 7.201 2.778 14.794 10.425 14.794h11.405c3.804 0 7.295-1.916 9.338-5.125l48.445-76.095c5.381-8.451-.704-19.541-10.724-19.541h-15.06l14.159-39.646c2.954-8.271-3.19-16.99-11.972-16.99zm40.036 71.636-45.049 70.76h-3.671l16.017-44.85c2.049-5.737-2.213-11.786-8.305-11.786h-22.687l25.27-70.76h26.473l-14.159 39.647c-2.954 8.27 3.19 16.989 11.972 16.989zm-46.833 20.877c.002-.004.003-.009.005-.013v.001z"/><path d="m358.625 367.745c14.069 0 25.515-11.446 25.515-25.515s-11.446-25.515-25.515-25.515-25.515 11.446-25.515 25.515 11.446 25.515 25.515 25.515zm0-36.03c5.798 0 10.515 4.717 10.515 10.515s-4.717 10.515-10.515 10.515-10.515-4.717-10.515-10.515 4.717-10.515 10.515-10.515z"/><path d="m153.375 316.715c-14.069 0-25.515 11.446-25.515 25.515s11.446 25.515 25.515 25.515 25.515-11.446 25.515-25.515-11.446-25.515-25.515-25.515zm0 36.03c-5.798 0-10.515-4.717-10.515-10.515s4.717-10.515 10.515-10.515 10.515 4.717 10.515 10.515-4.717 10.515-10.515 10.515z"/><path d="m255.641 51.696c-109.513 0-203.617 89.892-203.617 204.336 0 112.473 91.503 203.976 203.976 203.976s203.976-91.503 203.976-203.976c0-118.463-97.642-204.336-204.335-204.336zm33.062 82.288c2.784.746 4.446 3.527 3.783 6.332l-2.632 11.14c-.953 4.031 1.543 8.071 5.574 9.023 4.034.954 8.071-1.543 9.023-5.574l2.632-11.14c1.93-8.169-1.283-16.286-7.619-20.967 8.703-32.481-1.293 4.829 12.665-47.264 10.999 3.427 21.637 7.873 31.78 13.236l-8.438 14.615c-2.071 3.587-.842 8.174 2.745 10.245 3.571 2.062 8.165.858 10.245-2.745l8.421-14.586c9.695 6.148 18.835 13.169 27.285 20.96l-11.897 11.897c-2.929 2.929-2.929 7.678 0 10.606 2.929 2.929 7.678 2.929 10.606 0l11.912-11.912c7.79 8.403 14.838 17.525 21.01 27.262-12.002 6.929-109.176 63.033-127.283 73.487-.378-.447-.766-.886-1.161-1.318l8.77-37.121c.952-4.031-1.544-8.071-5.575-9.024-4.033-.951-8.071 1.544-9.024 5.575l-7.292 30.868c-4.548-2.165-9.538-3.547-14.794-3.969l22.822-76.034c.827-2.76 3.655-4.341 6.442-3.592zm-32.703 94.489c12.598 0 23.248 8.497 26.522 20.06h-53.045c3.274-11.56 13.921-20.06 26.523-20.06zm41.898 20.059c-.427-2.392-1.055-4.716-1.865-6.953l127.278-73.484c5.361 10.19 9.762 20.844 13.165 31.814l-16.344 4.379c-4.001 1.072-6.375 5.185-5.304 9.186.898 3.351 3.928 5.561 7.24 5.561 1.315 0 .032.255 18.28-4.634 2.517 11.179 4.023 22.605 4.48 34.131zm-41.898 196.476c-101.689 0-184.877-80.737-188.829-181.476h29.304c4.142 0 7.5-3.358 7.5-7.5s-3.358-7.5-7.5-7.5h-29.304c.458-11.678 1.981-23.087 4.474-34.133 17.57 4.708 16.914 4.636 18.288 4.636 3.311 0 6.342-2.21 7.24-5.561 1.072-4.001-1.303-8.113-5.304-9.186l-16.338-4.378c3.447-11.063 7.886-21.692 13.212-31.784l14.611 8.436c3.573 2.063 8.165.856 10.245-2.745 2.071-3.587.842-8.174-2.745-10.245l-14.59-8.423c6.164-9.726 13.192-18.852 20.974-27.272l11.885 11.885c2.929 2.929 7.678 2.929 10.606 0 2.929-2.929 2.929-7.678 0-10.606l-11.885-11.885c8.42-7.782 17.546-14.81 27.272-20.974l8.424 14.589c1.389 2.406 3.91 3.751 6.502 3.751 5.706 0 9.392-6.223 6.488-11.251l-8.436-14.611c10.092-5.326 20.722-9.765 31.784-13.212l4.378 16.339c.898 3.351 3.928 5.561 7.24 5.561 4.944 0 8.522-4.692 7.25-9.443l-4.379-16.341c11.046-2.493 22.455-4.016 34.133-4.474v16.898c0 4.142 3.358 7.5 7.5 7.5s7.5-3.358 7.5-7.5v-16.9c11.527.452 22.958 1.943 34.138 4.455l-12.662 47.256c-7.828.886-14.669 6.31-17.082 14.349l-24.662 82.166c-14.928 4.705-26.331 17.432-29.128 33.102h-82.627c-4.142 0-7.5 3.358-7.5 7.5s3.358 7.5 7.5 7.5h313.354c-3.954 100.739-87.142 181.477-188.831 181.477z"/></g></svg>